<svg viewBox="0 0 1693.32 1693.32">
    <g id="Capa_x0020_1">
        <metadata id="CorelCorpID_0Corel-Layer" />
        <polygon fill="black" points="1323.92,1092.79 1047.15,816.01 946.5,916.66 745.23,1117.93 845.88,1218.58 1047.15,1017.31 1122.63,1092.79 845.88,1369.54 569.14,1092.79 946.53,715.39 845.88,614.74 468.49,992.14 367.84,1092.79 845.88,1570.84 946.53,1470.19 1223.27,1193.44 " />
        <rect fill="black" transform="matrix(2.9716 2.97164 -2.9716 2.97164 1198.1 262.484)" width="160.87" height="33.87" />
        <rect fill="black" transform="matrix(2.63675 2.63679 -2.9716 2.97164 493.673 262.498)" width="38.16" height="160.87" />
        <polygon fill="blue" points="846.03,463.93 292.51,1017.46 191.71,916.66 745.23,363.13 773.73,334.64 845.85,262.51 1500.02,916.69 1399.4,1017.31 " />
        <rect fill="#00000000" x="-8.41" y="5.09" width="1702.62" height="1680.03" />
    </g>
</svg>